<svg width="22" height="21" viewBox="0 0 22 21" fill="none" xmlns="http://www.w3.org/2000/svg">
<path d="M11 0.868774C5.40623 0.868774 0.868729 5.40627 0.868729 11C0.868729 15.4063 3.68123 19.15 7.60623 20.55C7.62498 20.5563 7.69373 20.5813 7.71248 20.5875C7.76873 20.6063 7.83123 20.6188 7.89373 20.6188C8.22498 20.6188 8.48748 20.35 8.48748 20.025C8.48748 20.0063 8.48748 19.9938 8.48748 19.975C8.48748 19.4375 8.48748 18.7563 8.48748 18.2125C7.84373 18.3438 6.86873 18.4688 6.33748 18.2125C5.64998 17.8813 5.29998 17.4563 4.96873 16.6188C4.55623 15.6 3.60623 15.3188 3.56873 15.1438C3.53123 14.9625 4.57498 14.6938 5.11248 15.3125C5.64998 15.9313 6.19373 17.1688 7.34998 17.05C7.91873 16.9938 8.28748 16.9 8.51873 16.8313C8.56248 16.4313 8.69373 15.9375 9.02498 15.5875C6.30623 15.1375 4.49373 13.675 4.49373 10.8063C4.49373 9.50002 4.86873 8.48752 5.53123 7.73127C5.41873 7.10627 5.23123 5.65627 5.73123 5.15002C5.73123 5.15002 6.43748 4.71252 8.46248 6.13752C9.21873 5.96252 10.0562 5.87502 10.95 5.87502C10.9687 5.87502 10.9812 5.87502 11 5.87502C11.0187 5.87502 11.0312 5.87502 11.05 5.87502C11.95 5.88127 12.7875 5.96877 13.5375 6.13752C15.5625 4.71252 16.2687 5.15002 16.2687 5.15002C16.7687 5.66252 16.5812 7.11252 16.4687 7.73127C17.1312 8.49377 17.5062 9.50627 17.5062 10.8063C17.5062 13.675 15.7 15.1375 12.975 15.5875C13.4937 16.1313 13.5125 17.0125 13.5125 17.375C13.5125 17.7188 13.5125 20.0188 13.5125 20.0313C13.5125 20.3625 13.7812 20.625 14.1062 20.625C14.1562 20.625 14.2 20.6188 14.25 20.6063C14.2625 20.6063 14.3 20.5938 14.3125 20.5875C18.2812 19.2125 21.1312 15.4438 21.1312 11.0063C21.1312 5.40003 16.5937 0.868774 11 0.868774Z" fill="white"/>
</svg>
